<svg width="38" height="30" viewBox="0 0 38 30" fill="none" xmlns="http://www.w3.org/2000/svg">
<path d="M1 28.8182V27.1818C1 20.8557 6.12838 15.7273 12.4545 15.7273C18.7807 15.7273 23.9091 20.8557 23.9091 27.1818V28.8182" stroke="black" stroke-width="2" stroke-linecap="round"/>
<path d="M20.6364 19C20.6364 14.4813 24.2995 10.8182 28.8182 10.8182C33.3368 10.8182 37 14.4813 37 19V19.8182" stroke="black" stroke-width="2" stroke-linecap="round"/>
<path d="M12.4545 15.7273C16.0694 15.7273 19 12.7967 19 9.18181C19 5.56685 16.0694 2.63635 12.4545 2.63635C8.83956 2.63635 5.90906 5.56685 5.90906 9.18181C5.90906 12.7967 8.83956 15.7273 12.4545 15.7273Z" stroke="black" stroke-width="2" stroke-linecap="round" stroke-linejoin="round"/>
<path d="M28.8181 10.8182C31.5294 10.8182 33.7272 8.6203 33.7272 5.90909C33.7272 3.19788 31.5294 1 28.8181 1C26.1069 1 23.9091 3.19788 23.9091 5.90909C23.9091 8.6203 26.1069 10.8182 28.8181 10.8182Z" stroke="black" stroke-width="2" stroke-linecap="round" stroke-linejoin="round"/>
</svg>
