<svg width="33" height="34" viewBox="0 0 33 34" fill="none" xmlns="http://www.w3.org/2000/svg">
<path d="M7.45032 2.85889H25.6505C25.6505 2.85889 24.1339 27.4815 16.5504 27.4815C12.8459 27.4815 10.5891 21.6057 9.24964 15.5947C7.84712 9.30088 7.45032 2.85889 7.45032 2.85889Z" stroke="black" stroke-width="2" stroke-linecap="round" stroke-linejoin="round"/>
<path d="M25.6506 2.85886C25.6506 2.85886 27.2371 1.03373 28.5556 1.00152C31.1389 0.938446 31.6165 2.85886 31.6165 2.85886C32.1221 3.99095 32.5265 6.93435 30.0999 9.65135C27.6731 12.3683 24.9567 14.7457 23.8512 15.5947" stroke="black" stroke-width="2" stroke-linecap="round" stroke-linejoin="round"/>
<path d="M7.45025 2.85922C7.45025 2.85922 5.79727 1.01328 4.44443 1.0019C1.86111 0.980147 1.38352 2.85922 1.38352 2.85922C0.877944 3.99129 0.473499 6.93469 2.90021 9.65169C5.32689 12.3687 8.14423 14.746 9.24957 15.5952" stroke="black" stroke-width="2" stroke-linecap="round" stroke-linejoin="round"/>
<path d="M10.4838 32.576C10.4838 29.1797 16.5504 27.4816 16.5504 27.4816C16.5504 27.4816 22.6173 29.1797 22.6173 32.576H10.4838Z" stroke="black" stroke-width="2" stroke-linecap="round" stroke-linejoin="round"/>
</svg>
