<svg width="40" height="38" viewBox="0 0 40 38" fill="none" xmlns="http://www.w3.org/2000/svg">
<path d="M38.8881 1L36.8149 2.89474" stroke="black" stroke-width="2" stroke-linecap="round" stroke-linejoin="round"/>
<path d="M1.5708 1L3.64399 2.89474" stroke="black" stroke-width="2" stroke-linecap="round" stroke-linejoin="round"/>
<path d="M38.8881 27.5263L36.8149 25.6316" stroke="black" stroke-width="2" stroke-linecap="round" stroke-linejoin="round"/>
<path d="M1.5708 27.5263L3.64399 25.6316" stroke="black" stroke-width="2" stroke-linecap="round" stroke-linejoin="round"/>
<path d="M14.0099 31.3158H26.449" stroke="black" stroke-width="2" stroke-linecap="round" stroke-linejoin="round"/>
<path d="M16.0833 37H24.376" stroke="black" stroke-width="2" stroke-linecap="round" stroke-linejoin="round"/>
<path d="M20.2291 2.89474C11.9361 2.89474 7.69055 6.59003 7.79004 12.3684C7.83853 15.1857 8.82632 17.1053 10.8998 19C12.9733 20.8947 14.0099 21.8421 14.0096 25.6316H26.4486C26.4491 21.8423 27.4856 20.8947 29.5582 19.0002C31.6312 17.1055 32.6199 15.1857 32.6682 12.3684C32.7677 6.59003 28.5222 2.89474 20.2291 2.89474Z" stroke="black" stroke-width="2" stroke-linecap="round" stroke-linejoin="round"/>
</svg>
