<svg width="36" height="38" viewBox="0 0 36 38" fill="none" xmlns="http://www.w3.org/2000/svg">
<path d="M23.6666 36.96H12.3333V20.1786C12.3333 19.5166 12.8407 18.98 13.4666 18.98H22.5333C23.1592 18.98 23.6666 19.5166 23.6666 20.1786V36.96Z" stroke="black" stroke-width="2" stroke-linecap="round" stroke-linejoin="round"/>
<path d="M33.8666 36.96H23.6666V31.1664C23.6666 30.5044 24.174 29.9678 24.8 29.9678H33.8666C34.4926 29.9678 35 30.5044 35 31.1664V35.7613C35 36.4234 34.4926 36.96 33.8666 36.96Z" stroke="black" stroke-width="2" stroke-linecap="round" stroke-linejoin="round"/>
<path d="M12.3333 36.96V27.1709C12.3333 26.5088 11.8259 25.9722 11.2 25.9722H2.13333C1.50741 25.9722 1 26.5088 1 27.1709V35.7613C1 36.4234 1.50741 36.96 2.13333 36.96H12.3333Z" stroke="black" stroke-width="2" stroke-linecap="round" stroke-linejoin="round"/>
<path d="M15.7439 5.22181L17.4611 1.37079C17.6816 0.876402 18.3185 0.876402 18.5389 1.37079L20.2561 5.22181L24.0964 5.84316C24.5892 5.92289 24.7855 6.59332 24.4289 6.97794L21.6505 9.97342L22.3061 14.2053C22.3904 14.7488 21.8751 15.1633 21.4342 14.9065L18 12.9074L14.5658 14.9065C14.125 15.1633 13.6096 14.7488 13.6939 14.2053L14.3496 9.97342L11.5712 6.97794C11.2145 6.59332 11.4109 5.92289 11.9036 5.84316L15.7439 5.22181Z" stroke="black" stroke-width="2" stroke-linecap="round" stroke-linejoin="round"/>
</svg>
